<?xml version="1.0" encoding="utf-8"?>
<!-- Generator: Adobe Illustrator 25.2.1, SVG Export Plug-In . SVG Version: 6.00 Build 0)  -->
<svg version="1.1" id="Layer_1" xmlns="http://www.w3.org/2000/svg" xmlns:xlink="http://www.w3.org/1999/xlink" x="0px" y="0px"
	 viewBox="0 0 1080 1080" style="enable-background:new 0 0 1080 1080;" xml:space="preserve">
<style type="text/css">
	.st0{fill:#FFFFFF;}
	.st1{fill:#C72026;}
	.st2{fill:#1C468C;}
	.st3{opacity:9.000000e-02;}
	.st4{fill:url(#SVGID_1_);}
	.st5{fill:url(#SVGID_2_);}
	.st6{fill:#EFF9FC;}
	.st7{fill:url(#SVGID_3_);}
	.st8{fill:url(#SVGID_5_);}
	.st9{fill:url(#SVGID_6_);}
	.st10{fill:url(#SVGID_7_);}
	.st11{fill:url(#SVGID_8_);}
	.st12{fill:url(#SVGID_9_);}
	.st13{fill:url(#SVGID_10_);}
	.st14{fill:url(#SVGID_11_);}
	.st15{fill:url(#SVGID_12_);}
	.st16{fill:url(#SVGID_13_);}
	.st17{fill:url(#SVGID_14_);}
	.st18{fill:url(#SVGID_15_);}
	.st19{font-family:'MyriadPro-Bold';}
	.st20{font-size:108.4469px;}
	.st21{fill:#1C75BC;}
	.st22{fill:url(#XMLID_8_);}
	.st23{fill:#C7252C;}
	.st24{clip-path:url(#SVGID_17_);fill:url(#SVGID_18_);}
	.st25{fill:url(#XMLID_9_);}
</style>
<g>
	
		<image style="overflow:visible;opacity:0.3;" width="4583" height="4584" xlink:href="F19DA16C.png"  transform="matrix(0.24 0 0 0.24 -9.96 -6.12)">
	</image>
	<g>
		<circle class="st0" cx="540" cy="540" r="504.9"/>
	</g>
</g>
<g>
	<g>
		<g>
			<path class="st1" d="M540,82c-1.5,0-2.9,0.1-4.4,0.1v915.8c1.5,0,2.9,0.1,4.4,0.1c252.9,0,458-205.1,458-458S792.9,82,540,82z"/>
			<path class="st2" d="M82,540c0,251.5,202.7,455.5,453.6,457.9V82.1C284.7,84.5,82,288.5,82,540z"/>
		</g>
		<g class="st3">
			<path class="st0" d="M517.9,103.9c-6.6,6.6-6.9,10.2-5.9,56.3l1,49.1h-13.5c-18.8,0-24.4,6.9-24.4,31.6v19.4l-97.2-1l-97.5-1
				l5.6,8.6c4,6.3,4.9,12.5,3.6,24l-1.6,15.5l93.5-1l93.5-1v19.8c0,16.8,1,20.4,7.2,24.7c4,3,12.5,5.3,19.1,5.3H513V399
				c0,40.2,0.7,45.1,6.3,49.4c5.6,4,6.3,7.6,4.6,41.5c-2,37.9,4.9,84.3,12.2,82.7c5.9-1.3,11.9-42.5,10.9-80
				c-0.7-31.6,0.3-39.2,4.9-46.8c4.9-7.2,5.9-15.5,5.3-51.1c-0.3-41.8-0.3-42.2,6.9-41.2c20.8,3.3,30-8.2,27.3-33.6l-2-15.5l95.9,1
				l95.5,1l-1.6-15.5c-1.3-11.5-0.3-17.8,3.6-24l5.3-8.2h-97.2h-97.2v-19.1c0-23.1-5.9-30.3-24-30.3h-12.2v-50.7
				c0-49.1-0.3-51.1-7.2-56C540,95.3,525.9,96,517.9,103.9z"/>
			<path class="st0" d="M544.3,157.9c0,48.1,3,57.6,18.1,62.9c15.8,5.3,18.1,7.9,18.1,21.7c0,9.6,2.3,15.5,8.2,21.1l7.9,8.2H681h84
				v7.9c0,4.6-1.6,9.2-3.6,10.2c-2,1.3-40.5,2.6-85.6,3.3c-92.2,1-95.2,1.6-95.2,23.7c0,15.2-5.3,24-14.5,24
				c-15.8,0-20.1,10.2-21.7,55.7c-1,22.7-3,43.5-4.3,45.5c-8.9,13.8-14.5-4.9-15.2-50.1c-0.7-40.2-3.3-45.8-24-52.4
				c-9.6-3.3-11.2-5.3-12.8-17.8c-1-8.2-4.9-17.1-8.9-21.4c-7.2-6.9-9.6-7.2-85.6-7.6c-98.5-0.3-89.6,0.7-89.6-11.2v-9.9h83.3
				c93.5,0,96.2-0.7,99.5-22.4c4.3-25.4,4.6-26,15.5-28.3c20.8-4.3,22.4-7.9,22.4-56.7c0-34.9,1-44.8,4.9-48.7
				c3-2.6,7.2-4.3,9.9-3.3C543.3,114.1,544.3,122.6,544.3,157.9z"/>
			<path class="st0" d="M211.9,251.4c-11.9,6.3-23.4,23.7-23.4,34.9c0,3.6,1.6,10.9,3.6,16.5c3.3,9.6,1.6,13.8-25.4,63.6
				c-25,45.5-30.6,53.7-36.9,53.7c-30.6,0.3-48.7,44.5-28.3,68.8c9.2,10.9,25.4,17.1,38.9,14.5c7.6-1.6,13.5,3,45.1,33.9
				c19.8,19.8,37.5,36.2,39.2,36.9c2,0.7,3.3,6.3,3.3,12.2c0,13.8,12.5,24.7,28.3,24.7c9.6,0,17.8,6.6,68.8,54.3
				c32,30,59.3,54.3,60.9,54.3c9.6,0,3-10.2-27.7-43.5c-18.8-20.4-43.8-46.8-55.7-58.3c-20.1-19.8-21.4-21.4-19.8-33.3
				c1.6-10.5,0.3-14.2-6.6-21.1c-4.6-4.6-12.2-8.6-16.5-8.6c-5.6,0-18.4-10.9-46.1-38.9c-37.2-37.2-38.5-39.2-38.5-52.7
				c0-7.9-1.6-17.1-3.3-20.8c-3.6-6.6,1-16.1,40.2-86.3c14.8-25.7,17.1-28.7,26-28.7c6.3,0,13.8-3.6,22.1-11.2
				c10.9-10.2,12.2-12.8,12.2-28c0-14.8-1.3-18.1-11.9-28.7C245.9,245.2,228.4,242.2,211.9,251.4z"/>
			<path class="st0" d="M242.6,262c4.6,1.6,10.5,7.6,13.5,12.8c5.6,10.9,6.6,23.4,2,23.4c-1.6,0-3.6,2.6-4.3,5.9
				c-1,3.3-7.6,7.9-15.2,10.2c-21.1,7.2-26.7,14.5-63.6,85c-15.5,29.3-16.1,31.3-14.2,51.1c1,11.5,2.3,24.4,3.3,28.3
				c2.3,12.2,76.4,84.3,91.2,89.3c20.4,6.9,21.7,31.3,1.6,29.3c-9.2-1-11.9-3.3-18.4-16.5c-4.3-9.2-19.1-27.3-36.2-44.1
				c-39.5-39.2-47.1-44.5-65.5-46.1c-17.5-1.6-25.4-7.2-30.3-21.1c-4.6-14.2,4.3-29.6,20.8-35.2c18.4-6.3,22.7-11.2,42.8-48.4
				c9.6-18.4,21.4-40.2,26.4-48.7c9.2-16.8,10.5-24.4,7.2-42.2c-2.6-13.8,3-26,14.5-32C228.1,258,231.7,257.7,242.6,262z"/>
			<path class="st0" d="M824.3,247.8c-9.2,3.3-23.1,18.4-26.7,29.6c-6.9,21.4,11.9,50.4,33.3,50.4c8.6,0,11.2,3.3,29.6,36.9
				c43.5,78.4,39.9,69.8,34.6,83c-3,6.9-4.3,15.5-3,20.4c2,7.6-2.3,12.8-36.9,47.8c-25.4,25.7-41.5,39.2-46.1,39.2
				c-4,0-11.2,4-15.8,8.9c-7.2,7.2-8.9,11.2-7.6,20.8c1.3,10.9-0.7,13.5-38.9,52.7c-48.1,49.1-80.7,85.3-80.7,89.3
				c0,8.6,13.8-2.3,70.8-56c57-54,63.6-59.3,74.4-59.3c14.2-0.3,29.3-13.5,29.3-25.7c0-5.9,10.2-17.8,38.5-44.8
				c33.6-32.6,39.9-36.9,50.1-37.2c6.6,0,14.5-0.7,17.5-0.7c9.6-1,25.4-17.1,29.3-30.3c3.3-10.9,3-14.5-3-27
				c-7.6-15.2-21.4-25.7-34.3-25.7c-6.3,0-10.2-4.9-22.1-27.3c-8.2-14.8-21.7-38.9-30-53.7c-14.2-24.7-14.8-27-10.9-36.2
				c4.9-10.9,3-28.3-4.3-39.5C862.8,250.1,839.4,242.2,824.3,247.8z"/>
			<path class="st0" d="M858.5,268.6c4.3,4.3,5.9,10.2,5.9,21.1c-0.3,8.6-1.3,16.8-2.3,18.8c-1.3,1.6,1.6,11.5,6.6,22.1
				c4.6,10.2,8.6,19.4,8.2,20.1c-0.3,0.7,1,2.3,2.6,3.3c1.6,1,10.2,15.2,18.8,31.6c18.4,35.2,25.4,42.8,42.5,48.4
				c18.1,5.9,27,21.1,22.1,36.6c-4.6,13.5-13.2,18.4-34.3,20.1c-14.2,1-18.1,3.3-34.6,18.8c-50.1,48.4-62.6,62.3-66.5,73.5
				c-3,8.9-6.3,12.5-14.2,14.5c-13.2,3.6-15.5,2.3-15.5-8.6c0-11.9,2.6-15.2,18.1-22.4c12.2-5.6,75.8-66.5,86.3-82.7
				c3-4.3,4.3-9.6,3.3-12.5c-1.3-2.6-0.3-12.5,1.6-22.1l3.6-17.5l-21.4-40.5c-24.7-46.8-39.9-69.2-48.1-71.8
				c-20.1-6.3-26.7-11.2-30-23.1C803.5,267.2,837.1,247.5,858.5,268.6z"/>
			<path class="st0" d="M453.7,545.9c4.6,37.9,13.8,57.6,39.5,84.7c28.7,30.3,31.3,34.9,31.3,56c0,51.1-39.9,89.9-81.7,79.4
				c-8.2-2-19.4-5.9-25-8.9c-6.3-3.3-18.8-5.6-31.6-5.6c-51.4-0.7-80.7,40.8-78.4,110.3l1,27h22.7h22.7l-0.7-30
				c-0.7-32,3.6-46.8,15.8-53.4c14.2-7.6,22.7-4,48.7,20.4c28.3,26,48.4,36.6,82.3,43.8c41.8,8.9,77.7,4.6,113-13.2
				c22.4-11.2,55.7-45.1,66.9-67.9c9.6-19.4,19.4-55,16.5-59.9c-0.7-1.3-6.6,2-12.8,7.6c-12.5,10.9-15.2,11.5-24.7,6.6
				c-12.2-6.9-7.9-20.8,15.2-47.8c24.7-29.3,26.7-38.2,13.5-65.9c-19.1-41.5-69.8-59.6-109.4-38.9c-6.9,3.6-17.8,9.2-24,12.5
				c-10.2,5.3-11.9,5.3-21.7,0.7c-19.8-9.2-34.6-36.2-34.6-61.9v-12.8h-23.4h-23.4L453.7,545.9z"/>
			<path class="st0" d="M485,544.9c1.6,3.6,3.3,9.6,3.3,13.2c0,17.5,27.3,51.1,46.1,56.7c10.9,3.3,14.5,2.3,36.9-8.2
				c33.9-16.1,50.1-18.1,68.8-8.6c22.4,11.2,35.6,25.7,41.2,45.1c5.9,19.8,4.3,24.4-15.2,45.8c-17.5,18.8-23.7,29.6-23.7,39.5
				c0,9.6,16.5,28.7,22.7,26.4c5.9-2.3,14.2,1.3,14.2,5.9c0,11.9-21.7,45.8-39.9,62.6c-30,27.7-59.6,39.2-100.1,38.9
				c-52.4-0.7-81-11.9-112-43.5c-25.7-26.7-46.4-32.6-66.2-19.1c-12.5,8.6-18.4,24-19.1,50.4c-0.7,23.4-3,28-13.5,28
				c-5.6,0-8.2-2.3-9.6-8.9c-3-13.8,0.7-46.8,6.9-63.6c14.5-39.5,51.1-52.4,98.5-34.6c25.7,9.6,30.6,9.9,53.4,3.3
				c32.9-9.9,56-44.5,57-84.7c0.7-25.7-7.9-43.5-28.3-60.3c-22.4-18.8-44.5-63.9-39.9-82.7C469.2,537,480.1,536,485,544.9z"/>
		</g>
	</g>
	<g>
		<path class="st0" d="M357.6,582.4c58.5,16,72.3,11.5,82.7,27.2c1.2,1.8,7.3,11,6.1,22.8c-1,9.4-6.2,16.7-9.5,19.9
			c-20,19.4-75.2-4.3-106.7-30.3c-6.9-5.7-25.3-20.8-21.6-31.6c1.5-4.4,6.3-6.6,9.7-8.1C333.2,575.6,348.8,580,357.6,582.4z"/>
		<rect x="525.7" y="189.4" class="st0" width="12.4" height="81.7"/>
		<path class="st0" d="M581.9,316.2H482c-2.5,0-4.5-2-4.5-4.5V267c0-2.5,2-4.5,4.5-4.5h99.9c2.5,0,4.5,2,4.5,4.5v44.6
			C586.4,314.2,584.4,316.2,581.9,316.2z"/>
		<path class="st0" d="M627.7,584.5H436.3c-54.5,0-99.2-44.6-99.2-99.2v-30.9c0-91.5,74.8-166.3,166.3-166.3h57.1
			c91.5,0,166.3,74.8,166.3,166.3v30.9C726.8,540.2,682.4,584.5,627.7,584.5z"/>
		<linearGradient id="SVGID_1_" gradientUnits="userSpaceOnUse" x1="531.2635" y1="489.6559" x2="533.597" y2="384.6458">
			<stop  offset="0" style="stop-color:#1C468C"/>
			<stop  offset="3.043735e-02" style="stop-color:#2C4588"/>
			<stop  offset="0.2316" style="stop-color:#693F6C"/>
			<stop  offset="0.4238" style="stop-color:#8C3854"/>
			<stop  offset="0.6019" style="stop-color:#A63041"/>
			<stop  offset="0.7628" style="stop-color:#B92932"/>
			<stop  offset="0.9008" style="stop-color:#C32329"/>
			<stop  offset="1" style="stop-color:#C72026"/>
		</linearGradient>
		<path class="st4" d="M665.5,486.2L665.5,486.2c-5.1,2.5-10.8,3.8-16.6,3.8H415c-5.8,0-11.5-1.3-16.6-3.8l0,0
			c-12.5-6.2-19.6-18.7-17.8-31.5l0.1-0.9c6-43.4,45.3-76.8,93.6-79.3c20.4-1.1,41.8-1.6,64.2-1.5c17.5,0.1,34.4,0.6,50.7,1.5
			c48.4,2.5,88.1,35.8,94.1,79.4c0,0.3,0.1,0.6,0.1,0.9C685.1,467.5,678,480,665.5,486.2z"/>
		<g>
			<radialGradient id="SVGID_2_" cx="470.3173" cy="436.3624" r="43.6427" gradientUnits="userSpaceOnUse">
				<stop  offset="0.1296" style="stop-color:#4D78BC"/>
				<stop  offset="1" style="stop-color:#010101"/>
			</radialGradient>
			<circle class="st5" cx="470.3" cy="436.4" r="44.1"/>
			<g>
				<circle class="st6" cx="470.3" cy="436.4" r="31.7"/>
			</g>
			<g>
				<linearGradient id="SVGID_3_" gradientUnits="userSpaceOnUse" x1="443.7319" y1="436.3624" x2="496.9027" y2="436.3624">
					<stop  offset="0" style="stop-color:#0B1217"/>
					<stop  offset="1" style="stop-color:#0B2F45"/>
				</linearGradient>
				<circle class="st7" cx="470.3" cy="436.4" r="26.6"/>
			</g>
			<g>
				<path class="st6" d="M487.3,429.5c0,5.4-4.4,9.8-9.8,9.8c-5.4,0-9.8-4.4-9.8-9.8s4.4-9.8,9.8-9.8
					C482.9,419.6,487.3,424,487.3,429.5z"/>
			</g>
			<g>
				<circle class="st6" cx="466.4" cy="456.7" r="3.9"/>
			</g>
			<g>
				<path class="st6" d="M456.6,450.9c0,1.1-0.9,2-2,2c-1.1,0-2-0.9-2-2c0-1.1,0.9-2,2-2C455.8,448.9,456.6,449.8,456.6,450.9z"/>
			</g>
		</g>
		<g>
			<radialGradient id="SVGID_5_" cx="589.4498" cy="436.3624" r="43.6427" gradientUnits="userSpaceOnUse">
				<stop  offset="0.1296" style="stop-color:#4D78BC"/>
				<stop  offset="1" style="stop-color:#010101"/>
			</radialGradient>
			<circle class="st8" cx="589.4" cy="436.4" r="44.1"/>
			<g>
				<circle class="st6" cx="589.4" cy="436.4" r="31.7"/>
			</g>
			<g>
				<linearGradient id="SVGID_6_" gradientUnits="userSpaceOnUse" x1="562.8644" y1="436.3624" x2="616.0353" y2="436.3624">
					<stop  offset="0" style="stop-color:#0B1217"/>
					<stop  offset="1" style="stop-color:#0B2F45"/>
				</linearGradient>
				<circle class="st9" cx="589.4" cy="436.4" r="26.6"/>
			</g>
			<g>
				<path class="st6" d="M606.5,429.5c0,5.4-4.4,9.8-9.8,9.8s-9.8-4.4-9.8-9.8s4.4-9.8,9.8-9.8S606.5,424,606.5,429.5z"/>
			</g>
			<g>
				<circle class="st6" cx="585.5" cy="456.7" r="3.9"/>
			</g>
			<g>
				<path class="st6" d="M575.8,450.9c0,1.1-0.9,2-2,2s-2-0.9-2-2c0-1.1,0.9-2,2-2S575.8,449.8,575.8,450.9z"/>
			</g>
		</g>
		<path class="st0" d="M547.9,183.9c0,8.8-7.1,15.9-15.9,15.9c-8.8,0-15.9-7.1-15.9-15.9c0-8.8,7.1-15.9,15.9-15.9
			C540.8,168,547.9,175.1,547.9,183.9z"/>
		<linearGradient id="SVGID_7_" gradientUnits="userSpaceOnUse" x1="533.3151" y1="177.7263" x2="543.0384" y2="177.7263">
			<stop  offset="0" style="stop-color:#1C468C"/>
			<stop  offset="3.043735e-02" style="stop-color:#2C4588"/>
			<stop  offset="0.2316" style="stop-color:#693F6C"/>
			<stop  offset="0.4238" style="stop-color:#8C3854"/>
			<stop  offset="0.6019" style="stop-color:#A63041"/>
			<stop  offset="0.7628" style="stop-color:#B92932"/>
			<stop  offset="0.9008" style="stop-color:#C32329"/>
			<stop  offset="1" style="stop-color:#C72026"/>
		</linearGradient>
		<path class="st10" d="M543,177.7c0,2.7-2.2,4.9-4.9,4.9c-2.7,0-4.9-2.2-4.9-4.9c0-2.7,2.2-4.9,4.9-4.9
			C540.9,172.9,543,175,543,177.7z"/>
		<linearGradient id="SVGID_8_" gradientUnits="userSpaceOnUse" x1="615.5815" y1="343.3349" x2="658.8529" y2="343.3349">
			<stop  offset="0" style="stop-color:#1C468C"/>
			<stop  offset="3.043735e-02" style="stop-color:#2C4588"/>
			<stop  offset="0.2316" style="stop-color:#693F6C"/>
			<stop  offset="0.4238" style="stop-color:#8C3854"/>
			<stop  offset="0.6019" style="stop-color:#A63041"/>
			<stop  offset="0.7628" style="stop-color:#B92932"/>
			<stop  offset="0.9008" style="stop-color:#C32329"/>
			<stop  offset="1" style="stop-color:#C72026"/>
		</linearGradient>
		<path class="st11" d="M658.8,348c0.2,7.4-5.9,16.3-12.8,17.1c-6.5,0.7-11.7-6-17.1-12.8c-5.3-6.8-16.9-24.2-12.3-29.1
			C622.7,316.7,658.3,330.4,658.8,348z"/>
		<linearGradient id="SVGID_9_" gradientUnits="userSpaceOnUse" x1="593.6995" y1="314.0653" x2="604.7839" y2="314.0653">
			<stop  offset="0" style="stop-color:#1C468C"/>
			<stop  offset="3.043735e-02" style="stop-color:#2C4588"/>
			<stop  offset="0.2316" style="stop-color:#693F6C"/>
			<stop  offset="0.4238" style="stop-color:#8C3854"/>
			<stop  offset="0.6019" style="stop-color:#A63041"/>
			<stop  offset="0.7628" style="stop-color:#B92932"/>
			<stop  offset="0.9008" style="stop-color:#C32329"/>
			<stop  offset="1" style="stop-color:#C72026"/>
		</linearGradient>
		<circle class="st12" cx="599.2" cy="314.1" r="5.5"/>
		<path class="st0" d="M668.5,442.6c-1.8,1.3-14.2-24-47.4-45.9c-11.7-7.7-23.2-13.2-22.6-14.8c0.7-1.6,13.7,1.4,24.1,6.2
			C655.7,403.5,670.6,441.1,668.5,442.6z"/>
		<path class="st0" d="M583.3,278.4c-0.4,0.1-0.7-2.3-2.6-5.9c0,0-0.9-1.7-1.9-3.1c-3.3-4.6-14.7-4.5-15.6-4.5
			c-17.6,0.2-29-1-29-0.9c0,0.1,8.3-0.1,14.3-0.2c17.1-0.3,27.3-1.3,31.7,3.3c1.8,1.9,2.7,4.4,2.7,4.4
			C584.1,274.9,583.7,278.3,583.3,278.4z"/>
		<linearGradient id="SVGID_10_" gradientUnits="userSpaceOnUse" x1="502.1853" y1="511.9478" x2="579.7919" y2="511.9478">
			<stop  offset="0" style="stop-color:#1C468C"/>
			<stop  offset="3.043735e-02" style="stop-color:#2C4588"/>
			<stop  offset="0.2316" style="stop-color:#693F6C"/>
			<stop  offset="0.4238" style="stop-color:#8C3854"/>
			<stop  offset="0.6019" style="stop-color:#A63041"/>
			<stop  offset="0.7628" style="stop-color:#B92932"/>
			<stop  offset="0.9008" style="stop-color:#C32329"/>
			<stop  offset="1" style="stop-color:#C72026"/>
		</linearGradient>
		<path class="st13" d="M579.6,509c-0.4,4.2-3.9,7.5-8.2,7.9l-58.4,5.6c-4.2,0.4-8.3-2.1-9.5-6.2c-0.5-1.8-1-3.7-1.3-5.6
			c-0.1-0.5,0.1-1.1,0.4-1.5c0.3-0.4,0.8-0.7,1.4-0.7l73.7-7.1c0.5-0.1,1,0.1,1.4,0.5c0.4,0.3,0.6,0.8,0.7,1.4
			C579.8,505.2,579.8,507.1,579.6,509z"/>
		<linearGradient id="SVGID_11_" gradientUnits="userSpaceOnUse" x1="503.7038" y1="526.4521" x2="579.5912" y2="526.4521">
			<stop  offset="0" style="stop-color:#1C468C"/>
			<stop  offset="3.043735e-02" style="stop-color:#2C4588"/>
			<stop  offset="0.2316" style="stop-color:#693F6C"/>
			<stop  offset="0.4238" style="stop-color:#8C3854"/>
			<stop  offset="0.6019" style="stop-color:#A63041"/>
			<stop  offset="0.7628" style="stop-color:#B92932"/>
			<stop  offset="0.9008" style="stop-color:#C32329"/>
			<stop  offset="1" style="stop-color:#C72026"/>
		</linearGradient>
		<path class="st14" d="M579.6,509c-1.9,18.1-16.3,33-35.1,34.8c-18.6,1.8-35.3-9.7-40.8-26.7c1.5,3.6,5.3,5.9,9.3,5.5l58.4-5.6
			C575.6,516.4,579.1,513.2,579.6,509z"/>
		<path class="st0" d="M671.6,640.2c0,0.5,0,1.1,0,1.5c-0.2,4.9-1.3,8.6-1.9,10.2c-16.1,49.1-25.7,75-39.2,96
			c-2.3,3.6-4.8,7.1-7.4,10.5c-3.5,4.6-7.2,9-11.4,13.6c-9.3,10.2-23.5,14.7-28,16.3c-16.6,5.9-31.3,4.8-41.1,4.9h-1.7
			c-9.8-0.1-24.5,1-41.1-4.9c-4.6-1.6-18.7-6.2-28-16.3c-25.7-27.9-35.5-51.2-58.1-120c-0.5-1.6-1.6-5-1.9-9.6c-0.1-1.3-0.1-2.7,0-4
			c0.5-8.2,3.8-16.3,9.8-23.7c10.2-12.6,25.8-19.6,42.1-19.6l78.2-0.3l76.7-0.3c16.6-0.1,32.6,6.9,43.1,19.7
			c5.1,6.2,8.3,12.9,9.5,19.8c0.2,1,0.3,2,0.4,3C671.6,637.9,671.6,639,671.6,640.2z"/>
		<linearGradient id="SVGID_12_" gradientUnits="userSpaceOnUse" x1="443.7112" y1="651.2232" x2="574.9711" y2="497.9455">
			<stop  offset="0" style="stop-color:#1C468C"/>
			<stop  offset="3.043735e-02" style="stop-color:#2C4588"/>
			<stop  offset="0.2316" style="stop-color:#693F6C"/>
			<stop  offset="0.4238" style="stop-color:#8C3854"/>
			<stop  offset="0.6019" style="stop-color:#A63041"/>
			<stop  offset="0.7628" style="stop-color:#B92932"/>
			<stop  offset="0.9008" style="stop-color:#C32329"/>
			<stop  offset="1" style="stop-color:#C72026"/>
		</linearGradient>
		<path class="st15" d="M541.7,594.8l-78.2,0.4c-16.2,0.1-31.9,9.1-42.1,25.5c-5.9,9.6-9.3,20-9.8,30.7c0.4-11,3.9-21.7,10.1-31.5
			c10.5-16.6,26.6-25.6,43.1-25.5L541.7,594.8z"/>
		<path class="st0" d="M619.3,709.8c-1.1-60.6-9.3-72.6,2.8-87c1.4-1.7,8.5-10.1,20.2-12.3c9.3-1.7,17.7,1.3,21.7,3.5
			c24.3,13.7,17.1,73.3,1.1,110.9c-3.5,8.2-12.8,30.2-24.2,29.7c-4.7-0.2-8.1-4.1-10.5-7C619.6,735.2,619.5,719,619.3,709.8z"/>
		<linearGradient id="SVGID_13_" gradientUnits="userSpaceOnUse" x1="606.0548" y1="690.6758" x2="630.4883" y2="690.6758">
			<stop  offset="0" style="stop-color:#1C468C"/>
			<stop  offset="3.043735e-02" style="stop-color:#2C4588"/>
			<stop  offset="0.2316" style="stop-color:#693F6C"/>
			<stop  offset="0.4238" style="stop-color:#8C3854"/>
			<stop  offset="0.6019" style="stop-color:#A63041"/>
			<stop  offset="0.7628" style="stop-color:#B92932"/>
			<stop  offset="0.9008" style="stop-color:#C32329"/>
			<stop  offset="1" style="stop-color:#C72026"/>
		</linearGradient>
		<path class="st16" d="M630.5,747.9c-2.3,3.6-4.8,7.1-7.4,10.5c-0.8-0.9-1.6-1.7-2.3-2.5c-10.7-12.5-10.8-28.7-11-37.9
			c-1.1-60.6-9.4-72.6,2.8-87c0.9-1.1,4.1-4.9,9.4-8.1c-11.9,14.4-3.8,26.5-2.7,86.9c0.2,9.1,0.3,25.3,11,37.9
			C630.4,747.8,630.4,747.8,630.5,747.9z"/>
		<linearGradient id="SVGID_14_" gradientUnits="userSpaceOnUse" x1="655.249" y1="645.0807" x2="676.4328" y2="645.0807">
			<stop  offset="0" style="stop-color:#1C468C"/>
			<stop  offset="3.043735e-02" style="stop-color:#2C4588"/>
			<stop  offset="0.2316" style="stop-color:#693F6C"/>
			<stop  offset="0.4238" style="stop-color:#8C3854"/>
			<stop  offset="0.6019" style="stop-color:#A63041"/>
			<stop  offset="0.7628" style="stop-color:#B92932"/>
			<stop  offset="0.9008" style="stop-color:#C32329"/>
			<stop  offset="1" style="stop-color:#C72026"/>
		</linearGradient>
		<path class="st17" d="M664.7,659.4c-0.3-6.5-1.6-11.3-4-20.9c-3.2-12.5-7.2-18.6-4.6-21.1c1.7-1.6,5-0.5,5.8-0.3
			c11.5,3.7,15,25.2,14.5,38.6c-0.3,8.2-2.3,17.4-5.3,17.9c-0.5,0.1-1.7,0-2.5-0.7C665.2,669.9,665,664.3,664.7,659.4z"/>
		<linearGradient id="SVGID_15_" gradientUnits="userSpaceOnUse" x1="667.8089" y1="682.3391" x2="672.5635" y2="682.3391">
			<stop  offset="0" style="stop-color:#1C468C"/>
			<stop  offset="3.043735e-02" style="stop-color:#2C4588"/>
			<stop  offset="0.2316" style="stop-color:#693F6C"/>
			<stop  offset="0.4238" style="stop-color:#8C3854"/>
			<stop  offset="0.6019" style="stop-color:#A63041"/>
			<stop  offset="0.7628" style="stop-color:#B92932"/>
			<stop  offset="0.9008" style="stop-color:#C32329"/>
			<stop  offset="1" style="stop-color:#C72026"/>
		</linearGradient>
		<path class="st18" d="M672.6,682.3c0,1.3-1.1,2.4-2.4,2.4c-1.3,0-2.4-1.1-2.4-2.4c0-1.3,1.1-2.4,2.4-2.4
			C671.5,680,672.6,681,672.6,682.3z"/>
		<g>
			<text transform="matrix(1 0 0 1 477.5012 723.783)"><tspan x="0" y="0" class="st2 st19 st20">A</tspan><tspan x="71.1" y="0" class="st1 st19 st20">i</tspan></text>
		</g>
		<g>
			<g>
				<path class="st0" d="M380.3,792.1c-4.8,8.2-9.5,16.4-14.3,24.5c9.4,5.3,18.8,10.4,28.5,14.9c4-8.6,8-17.1,12-25.7
					c6.5,3,9.7,4.5,16.3,7.1c-9.2,22.7-18.4,45.5-27.6,68.2c-8.1-3.3-12-5-20-8.7c4.3-9.3,8.7-18.5,13-27.8
					c-10.1-4.9-19.9-10-29.7-15.5c-5.1,8.8-10.3,17.7-15.4,26.5c-7.6-4.4-11.4-6.8-18.8-11.7c13.5-20.5,26.9-41,40.4-61.5
					C371,786.6,374,788.5,380.3,792.1z"/>
				<path class="st0" d="M439.5,876.6c-4.5,6.5-6.9,9.8-11.7,16.2c-8.6-2.6-12.8-4.1-21.3-7.2c17.4-19.7,33.3-40,48.3-61.5
					c8.9,2.6,13.3,3.7,22.3,5.7c3,26.1,7.5,51.6,13.5,77.1c-9.1-1.3-13.7-2.1-22.8-3.9c-1.4-8-2-12-3.1-20
					C454.6,880.8,449.5,879.5,439.5,876.6z M464.5,870.2c-0.7-6.6-1.1-9.9-1.6-16.4c-0.3-4.6-0.4-10.3-0.5-14.7
					c-0.1,0-0.2-0.1-0.4-0.1c-2.1,4-4.8,9-7.2,12.8c-3.6,5.5-5.4,8.2-9.2,13.7C453.2,867.5,457,868.5,464.5,870.2z"/>
				<path class="st0" d="M511.2,836.4c5.7-0.4,14-0.3,23.4,0.1c11.5,0.5,19.5,2,25.2,5.9c4.8,3.3,7.8,8.3,8.2,15
					c0.5,9.3-6.8,16.1-14.2,18.5c0,0.1,0,0.2,0,0.3c6.1,2,9.6,6.6,12.2,13.3c3.2,8.3,6.5,17.7,8.6,20.4c-8.7,0.6-13.1,0.7-21.9,0.8
					c-1.4-2.2-3.9-8.1-6.4-17.1c-2.5-9.3-6.2-11.7-14.4-12.1c-2.3-0.1-3.5-0.2-5.9-0.3c-0.6,9.6-1.1,19.3-1.7,28.9
					c-8.5-0.5-12.7-0.8-21.1-1.8C505.9,884.4,508.6,860.4,511.2,836.4z M526.8,869.4c3,0.2,4.5,0.2,7.6,0.4
					c9.6,0.4,15.3-3.9,15.2-10.3c0-6.7-5.1-10.1-13.4-10.3c-4.4-0.1-6.9-0.1-8.2,0.2C527.5,857.3,527.2,861.3,526.8,869.4z"/>
				<path class="st0" d="M662.7,890.9c-9.3,5.7-19.8,9.7-29.7,11.8c-12.4,2.7-26.8,3.4-39.3-3.5c-8.3-4.6-14.7-16.3-15.2-25.5
					c-1.3-23.9,18.8-40.2,40.6-44.9c9.8-2.1,17.7-2.5,21.9-2c0,5.6,0,8.4,0,14c-4.8-0.6-10.6-0.1-19.1,1.5
					c-13.6,2.6-25.1,14.1-23.2,28.3c2,14.8,17.8,22.3,31.9,18.8c4.4-1.1,8.2-2.3,9.6-3.2c-1.5-6-2.2-9-3.6-15.1
					c-5.3,1.3-8,1.9-13.3,3c-1-5.1-1.6-7.6-2.6-12.7c10.3-2.1,20.7-4.7,30.8-7.7C655.4,866.1,659,878.5,662.7,890.9z"/>
				<path class="st0" d="M668.3,829.4c-5.5,2-10.2-0.3-11.7-4.7c-1.5-4.4,0.8-9,6.2-11c5.3-2,10,0.1,11.7,4.4
					c1.7,4.2-0.4,9.1-6.1,11.2C668.4,829.4,668.4,829.4,668.3,829.4z M679.1,889.2c-5.7-16.8-11.5-33.7-17.2-50.5
					c7.1-2.4,10.6-3.7,17.6-6.5c6.6,16.5,13.2,33,19.9,49.5C691.3,884.9,687.3,886.4,679.1,889.2z"/>
				<path class="st0" d="M709.6,858.6c6-0.2,15-2,23-6.3c8.7-4.6,11.5-10,9.1-14.2c-2.3-4-7.6-4-18.4-1.5
					c-10.6,2.4-26.3,2.2-31.1-9.1c-5.6-13.2,6.2-27.5,17.8-33.6c7.8-4.1,14.3-6.5,19.5-7.4c1.5,5.4,2.2,8.1,3.6,13.5
					c-3.5,0.5-9.7,1.9-16.7,5.8c-7.1,4-9.1,8.7-7.4,12c2.1,4.2,7.6,4.3,18.9,1.5c10.2-2.5,24.7-3.7,31.3,6.5
					c10.3,15.9-8.7,32.5-21.5,39.1c-9.8,5.1-20.8,7.7-26.6,7.8C710.7,867.2,710.3,864.3,709.6,858.6z"/>
			</g>
		</g>
	</g>
</g>
<image style="overflow:visible;" width="268" height="105" xlink:href="F19DA16C.jpg"  transform="matrix(3.3733 0 0 3.3733 -1053.1372 421.999)">
</image>
<g>
	<g>
		<path id="XMLID_745_" class="st1" d="M172.2,1420.6c11.1,11.8,16,28.4,15.2,44.7c6.6-3.1,16.6-6.1,24.2-7
			c9.9-1.1,26.7-7.1,37-15.1c10.3-8-0.2-8.9-15.4-13.1c-15.2-4.2-18.2-23.1-11.6-18.1c6.6,5,23.7,6.9,37.3,7.4
			c5.6,0.2,12.5,2.4,18.6,4.9c6.1,2.5,12.5,3.7,18.9,3.8c0.4,0,0.8,0,1.2,0.1c6.1,0.5,12.1-0.6,17.5-3.6
			c9.8-5.4,23.9-14.2,40.3-27.6c0,0,0,0,0,0c-2.6-7.3-5.8-14.5-9.6-21.5c-20.3-37.5-62-60.4-104.6-51.1c-21.9,4-41.3,13.4-52.5,22.5
			c-1.4,1.1-2.8,2.1-4.1,3c-16.6,10.8-24.1-4.5-26.5-11.2c-0.4-1.6-0.6-3.2-0.8-4.7c-1.2-9.4-8.1-17.2-17.5-19
			c-0.9-0.2-1.8-0.3-2.7-0.4c-13.4-1.2-24.6,10.2-23.6,23.6c1.2,16.3,4.9,32.6,13.7,46.3C138.4,1402.1,158.5,1406,172.2,1420.6z"/>
		<path id="XMLID_746_" class="st2" d="M181.1,1628c-6.9-5.5-14.2-10.4-22-14.4c-8.2-4.3-18.7-10.3-24.5-15.8
			c-0.2-0.2-0.6-0.6-1-0.9c-10.7-10.5-23-19.1-36.4-25.7c-18.3-9.1-36.4-22.2-52.5-35.6c-19.7,12.3-26.2,32.1-26.2,32.1
			c-12.5,31.3-4.2,69,0.9,86.1c2.2,7.3,8.4,12.8,16,13.7c0.3,0,0.6,0.1,0.9,0.1c14.5,1.3,24.9-13.7,19.1-27
			c-3.9-9-5.9-17.3-6.7-24.8c-0.7-6.1,3.1-12.2,9.1-13.8c7-1.9,14.7,4.3,19.8,8.4c8.8,7.2,17.5,13.5,27.9,18.4
			c13.8,6.5,28.6,10.6,43.7,12.7c17,2.4,34.1,2.1,51-0.2C194.8,1638.7,187.2,1633,181.1,1628z"/>
		<path id="XMLID_747_" class="st21" d="M206.4,1640.2c6.5-1.1,12.9-2.5,19.2-4.2c-10.8-4.3-32.4-19.7-39.2-24.6
			c-1-0.7-2.3-0.7-3.2,0.1c-1.3,1.1-1.2,3.1,0.1,4.1C189.5,1620.1,206.3,1633.3,206.4,1640.2z"/>
		<linearGradient id="XMLID_8_" gradientUnits="userSpaceOnUse" x1="111.1014" y1="1541.1166" x2="364.9596" y2="1541.1166">
			<stop  offset="0" style="stop-color:#1C468C"/>
			<stop  offset="3.043735e-02" style="stop-color:#2C4588"/>
			<stop  offset="0.2316" style="stop-color:#693F6C"/>
			<stop  offset="0.4238" style="stop-color:#8C3854"/>
			<stop  offset="0.6019" style="stop-color:#A63041"/>
			<stop  offset="0.7628" style="stop-color:#B92932"/>
			<stop  offset="0.9008" style="stop-color:#C32329"/>
			<stop  offset="1" style="stop-color:#C72026"/>
		</linearGradient>
		<path id="XMLID_748_" class="st22" d="M339.2,1460.2c-13.9,5.5-26.9,13.1-38.4,22.6c-0.4,0.4-0.8,0.6-1,0.9
			c-6.2,4.9-17.1,10.1-25.7,13.7c-8.1,3.4-15.9,7.6-23.2,12.5c-10.7,7.2-25.5,16.2-26.3,11c-1-6.7,18.3-19.4,25-23.6
			c1.4-0.9,1.7-2.8,0.5-4.1c-0.8-0.8-2.2-0.9-3.2-0.3c-9.6,5.8-47.8,28.4-47.2,20.3c0.5-8,29.7-22.4,37.6-26.2
			c1-0.5,1.5-1.6,1.1-2.7c-0.4-1.1-1.6-1.5-2.7-1.1c-9,3.8-49.4,20.2-52.8,13.6c-3-6,36-20.3,47.2-24.3c1.6-0.6,2.3-2.4,1.6-3.9
			c-0.6-1.2-1.9-1.8-3.1-1.5c-16.6,3.9-33.4,7.3-42.1,6.6c-1.5,8.8-4.7,17.3-9.5,24.6c-15.4,23.6-40.3,30-65.9,29.7
			c5,3.8,9.4,7,13.2,9.5c5.1,3.4,11,5,17.1,5c0.4,0,0.8,0,1.2,0c6.4,0.5,12.9-0.2,19.2-2.2c6.3-2,13.3-3.6,18.9-3.3
			c13.6,0.6,30.7,0.2,37.8-4.3c7-4.5,2.5,14.2-13,17.1c-15.5,2.9-26,2.9-16.4,11.8c9.6,8.9,25.8,16.2,35.6,18.2
			c13,2.6,32.4,12,29.7,15.9c-3.5,4.9-25.6-1.3-47.4-8.4c-1.2-0.4-2.6,0.1-3.2,1.2c-0.9,1.4-0.3,3.3,1.2,4
			c10.9,4.9,48.5,22.4,45.1,28.1c-3.9,6.3-42.8-13.5-51.4-18c-1-0.5-2.2-0.1-2.8,0.9c-0.5,1-0.1,2.2,0.9,2.7
			c7.2,4.2,32.8,19.6,35.1,28c3.5-1,7-2.1,10.5-3.3c75.7-25.8,125.2-105.4,122.7-183.3C356.4,1452.5,347.8,1456.7,339.2,1460.2z"/>
	</g>
	<g>
		<g>
			<path class="st2" d="M523.6,1561.9h-34.1c0-4.1,0.9-11.4,2.1-16.6c-9.9,15.7-25.3,20.1-37.9,20.1c-36.4,0-42-29-33.9-67.4
				l22.9-108c8.4-39.8,21.8-67.6,67.2-67.1c54,0.5,55.8,38.5,50.3,64.9l-1.6,7.4h-45.2l2.5-12.8c2.5-13.8,1.7-22.9-9.4-22.9
				c-8.3,0-13,4.3-17.3,24.7L463.9,1503c-3.7,17.2-1.8,26,8.6,26c11,0,15.8-8.8,20.5-30.9l6.5-31.6h-15.7l8.2-37.7h60.2
				L523.6,1561.9z"/>
			<path class="st1" d="M588.6,1376H633l-39.5,185.8H549L588.6,1376z M601.4,1316h44.4l-8.7,41h-44.4L601.4,1316z"/>
		</g>
	</g>
	<g>
		<g>
			<g>
				<path class="st23" d="M669.6,1508.6l-1.5,7.6c-1.9,11-0.6,16.9,7,16.9c6.5,0,9.7-5,11.9-15.9c2.6-13.1,0.4-21.2-13.4-36.9
					c-16.3-18.7-22.8-29.2-18.1-53.7c4.6-23.8,17.5-35,39.8-35c35.2,0,37.6,24.4,33.8,44.9l-0.7,3.4h-29.1l1.2-5.9
					c1.9-10.5,1.8-17.9-5.6-17.9c-5,0-8.3,3-9.7,11.3c-2,11.3-0.2,16.4,10.8,29.4c21.5,25.1,26.3,37.8,21.2,62.6
					c-5.5,26.2-18.7,37.8-44.8,37.8c-30.1,0-39.5-17.5-33.8-44.9l0.8-3.8H669.6z"/>
				<path class="st23" d="M808.1,1514.6c-4.5,21.1-7.2,33.1-8.1,40.2h-29.8c0.2-2.7,0.7-6.6,1.4-10.1c-7.3,9.9-14.1,12.1-24.1,12.1
					c-10.9,0-24.4-6.3-18-36.2l19.6-92.7h30.3l-19.2,90.2c-1.8,8.8-0.5,13,5.3,13c6.7,0,9.9-5.6,12.3-17l18.2-86.1h30.5
					L808.1,1514.6z"/>
				<path class="st23" d="M835.5,1471c4.5-21.7,7.4-34.8,8.8-43.1h28.9c-0.3,3.5-1.3,10.4-3,18c6.7-15,18-19.8,29.5-19.9l-7.8,35.9
					c-18.7-0.7-25.9,7.1-30.4,28.2l-13.5,64.7h-30.3L835.5,1471z"/>
				<path class="st23" d="M963.4,1543.5c-6.6,31.2-9.6,54.5-47.6,54.5c-32.9,0-37.4-17.5-34.1-34.1l0.2-1.2h30.5l-0.2,1.4
					c-0.7,4.3-0.9,10.2,6.3,10.2c8.4,0,10-9.3,13-22.7l2.5-11.4c-4.9,7.6-12.5,11.4-21.6,11.4c-22.3,0-24.3-19.9-20-40.1l9.8-45.6
					c3.7-17.2,10.7-39.8,34.2-39.8c11.9,0,17.4,5.3,19.6,11.8c1-3.7,2.7-7.9,3.6-9.8h28.9c-2.3,9.3-4.7,20.1-7.8,35.1L963.4,1543.5z
					 M932.6,1464.8l-9.7,45.8c-2.1,9.8-0.8,15.2,6,15.2c7.2,0,9.8-6.1,12.5-18.7l8.8-41.5c1.5-7.6,1.5-14.5-6-14.5
					C937.3,1451,934.5,1456.1,932.6,1464.8z"/>
				<path class="st23" d="M1018.8,1499.3l-4.1,19.9c-1.8,8.1-0.7,13.7,5.6,13.7c6.8,0,8.7-6.3,10.1-12.8l1.1-5.5h29.6l-0.7,3.7
					c-4.3,21.4-12.5,38.5-42.9,38.5c-33.5,0-36.5-22.6-31.3-46.8l9-42.3c4.8-22.5,13.6-41.6,43.8-41.6c32.9,0,37.1,20,31.8,44.9
					l-6,28.3H1018.8z M1040.1,1477.3l2.9-14.1c1.7-8.3,1.6-14.3-5.6-14.3c-6.2,0-8.7,4-10.8,14.2l-3,14.2H1040.1z"/>
				<path class="st23" d="M1085.8,1471c4.5-21.7,7.4-34.8,8.8-43.1h28.9c-0.3,3.5-1.3,10.4-3,18c6.7-15,18-19.8,29.5-19.9l-7.8,35.9
					c-18.7-0.7-25.9,7.1-30.4,28.2l-13.5,64.7H1068L1085.8,1471z"/>
				<path class="st23" d="M1183,1427.9c-1.6,25.4-5.4,79-7.5,94h0.8c7.5-25.2,19.7-62.9,30.4-94h31.1l-52.9,130.5
					c-13,31.6-22.5,38.9-44.8,38.9c-5.3,0-11.4-0.6-15.4-1.5l5.6-25.9c2.8,0.4,4,0.6,7.6,0.6c6.6,0,9.8-2.3,13.3-11.1l1.2-131.6
					H1183z"/>
			</g>
		</g>
		<g>
			<g>
				<g>
					<path class="st2" d="M1240,1561.9l8.1-38.2h29.6l-8.1,38.2H1240z"/>
					<path class="st2" d="M1312.6,1435h30.3l-27,126.9h-30.3L1312.6,1435z M1321.3,1394h30.3l-6,28h-30.3L1321.3,1394z"/>
					<path class="st2" d="M1352.8,1473c4.7-22.7,6.9-33.3,7.7-38h29.7c-0.4,3.1-0.8,6.5-1.4,9.3c4.7-5.6,12.3-11.3,24-11.3
						c17.7,0,23.7,13.1,19.8,31.4l-20.6,97.4h-30.4l19.1-90.4c1.9-8.6,0-13.5-5.6-13.5c-6.5,0-9.6,4.9-12.2,17.4l-18.4,86.4H1334
						L1352.8,1473z"/>
					<path class="st2" d="M1433,1561.9l21.6-101.4h-12.5l5.4-25.4h12.5l1.8-8.7c4-18.7,11.2-33.7,35.8-33.7c4.1,0,11.5,0.8,14.1,1.6
						l-5.2,24.1c-1.8-0.4-3.3-0.4-5-0.4c-5.7,0-8,3.2-9.4,9.6l-1.6,7.5h13.8l-5.4,25.4h-13.8l-21.6,101.4H1433z"/>
					<path class="st2" d="M1580.5,1477.2l-9.7,46.2c-5.8,27.7-17.4,40.4-44.7,40.4c-26.8,0-38.6-15.3-32.8-42.9l10.4-49.1
						c5.7-27.3,19.4-38.8,44-38.8C1573.4,1433,1586.6,1448.2,1580.5,1477.2z M1534.5,1470.5l-11.8,55.9c-1.8,7.9-0.2,13.2,6.6,13.2
						c6.5,0,8.8-5.7,10.5-13.5l11.8-55.8c1.5-7.2,1.3-13.3-6.4-13.3C1538.2,1457,1536.2,1462.9,1534.5,1470.5z"/>
				</g>
			</g>
		</g>
	</g>
	<g>
		<g>
			<g>
				<path class="st2" d="M477,1640.2c0,16.2-9.2,30.6-27.9,30.6c-17.6,0-27.2-13.4-27.2-30.3c0-16.9,10-30.3,27.9-30.3
					C466.5,1610.2,477,1622.6,477,1640.2z M431,1640.2c0,12.5,6.2,23.2,18.5,23.2c13.2,0,18.4-10.9,18.4-23.1
					c0-12.4-5.9-22.8-18.4-22.8C436.6,1617.5,431,1627.9,431,1640.2z"/>
				<path class="st2" d="M487.6,1637.6c0-3.7,0-7.6-0.1-10.9h8.1c0.2,1.2,0.3,5.5,0.3,6.8c1.7-3.5,5.2-7.8,13.4-7.8
					c8.2,0,14.4,5.1,14.4,16.5v27.7h-8.3v-26.7c0-6.2-2.4-10.4-8.7-10.4c-7.5,0-10.8,5.5-10.8,14v23.1h-8.3V1637.6z"/>
				<path class="st2" d="M536,1669.9v-62.2h8.3v62.2H536z"/>
				<path class="st2" d="M556.7,1607.7h8.3v9.6h-8.3V1607.7z M556.7,1626.8h8.3v43.2h-8.3V1626.8z"/>
				<path class="st2" d="M577.4,1637.6c0-3.7,0-7.6-0.1-10.9h8.1c0.2,1.2,0.3,5.5,0.3,6.8c1.7-3.5,5.2-7.8,13.4-7.8
					c8.2,0,14.4,5.1,14.4,16.5v27.7h-8.3v-26.7c0-6.2-2.4-10.4-8.7-10.4c-7.5,0-10.8,5.5-10.8,14v23.1h-8.3V1637.6z"/>
				<path class="st2" d="M631.2,1649.9c0,8.1,4.1,14.2,11.2,14.2c6.5,0,8.5-3.2,9.9-6.3h8.4c-1.7,5.5-6.3,13.1-18.5,13.1
					c-13.7,0-19.4-11-19.4-22.1c0-13,6.6-23.1,19.8-23.1c14.1,0,18.8,11.1,18.8,20.6c0,1.3,0,2.4-0.1,3.6H631.2z M653,1644.3
					c-0.1-6.7-3.4-12.1-10.4-12.1c-7.2,0-10.4,5-11.1,12.1H653z"/>
				<path class="st2" d="M702,1644.4v25.5h-8.6V1611h23.6c12.2,0,18.8,6.7,18.8,15.8c0,7.7-4.4,12.3-9.8,13.9
					c4.4,1.2,8.7,4.7,8.7,15v2.6c0,4-0.1,9.1,0.8,11.6H727c-1.1-2.5-1-7.1-1-12.8v-1.2c0-8-2.2-11.5-12.6-11.5H702z M702,1637.2
					h12.4c8.6,0,12.3-3.2,12.3-9.5c0-6-3.9-9.4-11.6-9.4H702V1637.2z"/>
				<path class="st2" d="M752.2,1649.9c0,8.1,4.1,14.2,11.2,14.2c6.5,0,8.5-3.2,9.9-6.3h8.4c-1.7,5.5-6.3,13.1-18.5,13.1
					c-13.7,0-19.4-11-19.4-22.1c0-13,6.6-23.1,19.8-23.1c14.1,0,18.8,11.1,18.8,20.6c0,1.3,0,2.4-0.1,3.6H752.2z M773.9,1644.3
					c-0.1-6.7-3.4-12.1-10.4-12.1c-7.2,0-10.4,5-11.1,12.1H773.9z"/>
				<path class="st2" d="M796.2,1657.5c1.2,4.5,4.5,7.1,10.1,7.1c6,0,8.3-2.5,8.3-6.2c0-3.8-2-5.5-9.8-7.4
					c-12.7-3.1-15.2-7-15.2-12.9c0-6.2,4.5-12.3,16-12.3c11.5,0,16.1,6.6,16.6,12.6h-8c-0.6-2.6-2.5-6.3-8.9-6.3
					c-5.6,0-7.3,2.7-7.3,5.3c0,3,1.7,4.5,9.4,6.3c13.3,3.2,15.9,7.6,15.9,14c0,7.5-5.9,13.2-17.1,13.2c-11.6,0-17-5.8-18.1-13.5
					H796.2z"/>
				<path class="st2" d="M870.1,1648.3c0,12.6-7.3,22.7-20.6,22.7c-12.6,0-20.1-9.6-20.1-22.5c0-12.9,7.5-22.7,20.6-22.7
					C862.1,1625.7,870.1,1634.7,870.1,1648.3z M837.9,1648.3c0,9.2,4.5,15.8,11.9,15.8c7.5,0,11.7-6.2,11.7-15.7
					c0-9.6-4.2-15.8-11.9-15.8C842.1,1632.6,837.9,1638.6,837.9,1648.3z"/>
				<path class="st2" d="M914.7,1657.4c0,4.2,0,9.8,0.1,12.6h-8.1c-0.2-1.1-0.3-3.7-0.3-6.2c-2.2,4.7-6.3,7.2-12.8,7.2
					c-7.6,0-14.3-4-14.3-15.9v-28.3h8.3v26.6c0,5.5,1.7,10.5,8.5,10.5c7.5,0,10.4-4.1,10.4-14.5v-22.6h8.3V1657.4z"/>
				<path class="st2" d="M927.1,1638.5c0-5.7,0-9.2-0.1-11.7h8.2c0.1,1.2,0.2,4.7,0.2,8.6c2.2-5.7,7.2-9.4,14.4-9.6v8.2
					c-8.8,0.2-14.4,4.3-14.4,15.4v20.5h-8.3V1638.5z"/>
				<path class="st2" d="M992.3,1656.6c-1.8,7.4-6.8,14.4-18.1,14.4c-12.2,0-19.5-8.7-19.5-22.4c0-12.3,7.1-22.9,20-22.9
					c12.9,0,17.1,9.2,17.6,14.6h-8.2c-1-4.2-3.6-7.8-9.5-7.8c-7.2,0-11.3,6.2-11.3,15.7c0,9.7,4,15.8,11.1,15.8
					c5.2,0,8.1-2.8,9.7-7.6H992.3z"/>
				<path class="st2" d="M1006.5,1649.9c0,8.1,4.1,14.2,11.2,14.2c6.5,0,8.5-3.2,9.9-6.3h8.4c-1.7,5.5-6.3,13.1-18.5,13.1
					c-13.7,0-19.4-11-19.4-22.1c0-13,6.6-23.1,19.8-23.1c14.1,0,18.8,11.1,18.8,20.6c0,1.3,0,2.4-0.1,3.6H1006.5z M1028.2,1644.3
					c-0.1-6.7-3.4-12.1-10.4-12.1c-7.2,0-10.4,5-11.1,12.1H1028.2z"/>
				<path class="st2" d="M1077.3,1611v58.9h-8.7V1611H1077.3z"/>
				<path class="st2" d="M1091.2,1637.6c0-3.7,0-7.6-0.1-10.9h8.1c0.2,1.2,0.3,5.5,0.3,6.8c1.7-3.5,5.2-7.8,13.4-7.8
					c8.2,0,14.4,5.1,14.4,16.5v27.7h-8.3v-26.7c0-6.2-2.4-10.4-8.7-10.4c-7.5,0-10.8,5.5-10.8,14v23.1h-8.3V1637.6z"/>
				<path class="st2" d="M1210.7,1669.9h-6.6c-0.4-1.3-0.7-3.8-0.8-7.6c-2.7,4.2-7.9,8.4-18.1,8.4c-17,0-26.1-12.9-26.1-29.7
					c0-17.6,9.8-30.9,27.7-30.9c14,0,22.6,7.6,24.3,18.1h-8.7c-1.9-6.1-6.3-10.9-15.7-10.9c-13.4,0-18.4,10.8-18.4,23.3
					c0,11.8,5.2,22.8,18.2,22.8c12.8,0,15.8-8.6,15.8-17.6v-0.6h-15.9v-7.4h24.4V1669.9z"/>
				<path class="st1" d="M1223,1607.7h8.3v9.6h-8.3V1607.7z M1223,1626.8h8.3v43.2h-8.3V1626.8z"/>
				<path class="st2" d="M1271.1,1653.4c1.5,6.8,6.3,10.4,14.5,10.4c8.7,0,12.2-4,12.2-9.3c0-5.7-2.9-8.8-14.4-11.5
					c-14.3-3.4-18.9-8.4-18.9-16.6c0-9,6.7-16.1,20-16.1c14.3,0,20.2,8.2,21,16.1h-8.9c-1-4.9-4-9.2-12.4-9.2
					c-6.8,0-10.6,3-10.6,8.4c0,5.3,3.2,7.3,13.3,9.8c16.9,4.1,20,10.6,20,18.3c0,9.7-7.2,17.2-21.9,17.2c-14.8,0-21.5-8-22.8-17.3
					H1271.1z"/>
				<path class="st2" d="M1352.2,1657.4c0,4.2,0,9.8,0.1,12.6h-8.1c-0.2-1.1-0.3-3.7-0.3-6.2c-2.2,4.7-6.3,7.2-12.8,7.2
					c-7.6,0-14.3-4-14.3-15.9v-28.3h8.3v26.6c0,5.5,1.7,10.5,8.5,10.5c7.5,0,10.4-4.1,10.4-14.5v-22.6h8.3V1657.4z"/>
				<path class="st2" d="M1364.6,1638.5c0-5.7,0-9.2-0.1-11.7h8.2c0.1,1.2,0.2,4.7,0.2,8.6c2.2-5.7,7.2-9.4,14.4-9.6v8.2
					c-8.8,0.2-14.4,4.3-14.4,15.4v20.5h-8.3V1638.5z"/>
				<path class="st2" d="M1431.4,1665.8c0,13.8-5.6,21.9-20.1,21.9c-13.6,0-17.5-7.6-18.2-13.3h8.5c1.2,4.4,4.7,6.8,10,6.8
					c9.4,0,11.7-5.9,11.7-15.6v-3.2c-2.3,4.6-6.2,7.3-13.2,7.3c-10.8,0-17.9-8.8-17.9-21.2c0-14,8.2-22.7,18.7-22.7
					c8.1,0,11.5,3.8,12.4,6.5c0.1-1.8,0.3-4.6,0.4-5.5h7.9c0,2.8-0.1,8.3-0.1,12.5V1665.8z M1400.8,1648.1c0,8.8,4.5,14.6,11.2,14.6
					c8.9,0,11.5-6,11.5-15.1c0-9.2-2.3-14.8-11.2-14.8C1404.8,1632.7,1400.8,1638.9,1400.8,1648.1z"/>
				<path class="st2" d="M1449.1,1649.9c0,8.1,4.1,14.2,11.2,14.2c6.5,0,8.5-3.2,9.9-6.3h8.4c-1.7,5.5-6.3,13.1-18.5,13.1
					c-13.7,0-19.4-11-19.4-22.1c0-13,6.6-23.1,19.8-23.1c14.1,0,18.8,11.1,18.8,20.6c0,1.3,0,2.4-0.1,3.6H1449.1z M1470.9,1644.3
					c-0.1-6.7-3.4-12.1-10.4-12.1c-7.2,0-10.4,5-11.1,12.1H1470.9z"/>
				<path class="st2" d="M1488.5,1638.5c0-5.7,0-9.2-0.1-11.7h8.2c0.1,1.2,0.2,4.7,0.2,8.6c2.2-5.7,7.2-9.4,14.4-9.6v8.2
					c-8.8,0.2-14.4,4.3-14.4,15.4v20.5h-8.3V1638.5z"/>
				<path class="st2" d="M1522.7,1626.8c6.5,19.6,10.3,31.4,11.4,35.7h0.1c1.3-4.8,4.3-14.6,11-35.7h8.4l-15.3,45
					c-4.3,12.6-7.6,15.9-16.8,15.9c-1.3,0-3.1-0.1-4.8-0.3v-7.1c1,0.1,2.3,0.2,3.5,0.2c5.3,0,7.4-2.2,9.7-9l-16.1-44.8H1522.7z"/>
			</g>
		</g>
	</g>
</g>
<g>
	<defs>
		<path id="SVGID_4_" d="M161.4,2559.6c-4.3,13.9-19.8,68.3,21.2,41.8c53.4-38.7,98.3-24.3,90.2,45.2c9.2-43.6-9.7-88.3-47.3-112.2
			c-39.4-25.1-90.6-21.7-126.3,8.4c36.9-34.6,92.4-39.9,135.2-13.1c38,23.8,57.5,67.6,51,110.9c-1.9,17.7-10.4,37.6-27.3,57
			c-12,13.8-29.5,31.4-49.3,25c-4.2-1.4-8.6-2.9-13.3-4.6c-7-2.4-11.9-3.6-14.6-3.4c-1.7,0.2-3.2,1.3-3.7,3c-0.6,1.6-0.2,3.4,1,4.7
			c3.7,3.3,14.9,8.5,14.9,12.4c0,1.8-3.2,4.1-9.7,6.9c-3.4,1.7-13.9,5.8-31.5,12.5c-2.8,1.2-4.7,2.4-5.7,3.7
			c-0.7,1.1-0.8,2.4-0.4,3.6c0.4,1.2,1.4,2.1,2.6,2.5c1.6,0.6,5.1,0,10.3-1.9c16.4-5.6,26.4-8.5,30-8.5c2.4-0.2,2.6,0.4,0.7,1.8
			c-5.7,4-13.6,8.4-23.6,13.3c-7.9,4.2-13.2,6.9-16,8c-3.4,1.7-5.8,3.2-7.1,4.6c-1.1,1.1-1.5,2.8-1,4.3c0.5,1.4,1.8,2.5,3.4,2.6
			c2.9,0.3,12.3-3.8,15-5c14.9-6.1,25.2-10.1,30.9-11.8c4.8-1.4,5.1-0.6,0.9,2.5c-4.6,3.5-12.5,8.2-23.9,14.3
			c-5.6,3.1-9.2,5.6-11,7.6c-0.8,1.1-1.1,2.5-0.6,3.8c2.9,7.9,39-14.4,46.7-16.8c1.9-0.6,2.4-0.1,0.9,1.6c-4,4.5-11,9.5-16.8,13.1
			c-2.7,1.6-10.7,6.3-6.8,10.1c0.9,0.9,2.2,1.2,3.5,0.9c15.3-5.3,43.8-30.1,57.4-42.5c26.9-24.2,47-53.5,56.9-84.9
			c21.6-68.7-11.1-142.8-76.4-173.1c40.7,17.2,71.9,51.2,85.6,93.1c13,39.8,9,83.1-10.8,119.7c-0.9,1.6-1.8,3.3-2.8,4.9
			c-0.1,0.2-0.3,0.5-0.4,0.7c-0.1,0.1-0.1,0.3-0.2,0.4l0,0l0,0c-12.8,21.4-30,39.8-50.5,54c15.9-10.2,30.9-21.7,45-34.3
			c-1.3,3.9-2.8,7.7-4.4,11.4c-16,37.5-47.7,65.9-90.8,66.2c-37.1,0.2-70.7-19-94.1-28c-32.4-12.5-29,13.7-31.6,34.2
			c-3.5,27.8-38.2,26.1-38.6-0.3c-0.4-27.4-1.6-58.4,15.4-75.3c25.9-25.8,78.8-0.6,98.6-18.5c27.8-25,13.9-67.5-5.8-92.9
			c-20.8-26.8-26.2-56.7-7.1-87.5C139.4,2539.4,165.4,2546.6,161.4,2559.6"/>
	</defs>
	<linearGradient id="SVGID_16_" gradientUnits="userSpaceOnUse" x1="27.9239" y1="2679.0852" x2="314.9194" y2="2679.0852">
		<stop  offset="0" style="stop-color:#1C468C"/>
		<stop  offset="3.043735e-02" style="stop-color:#2C4588"/>
		<stop  offset="0.2316" style="stop-color:#693F6C"/>
		<stop  offset="0.4238" style="stop-color:#8C3854"/>
		<stop  offset="0.6019" style="stop-color:#A63041"/>
		<stop  offset="0.7628" style="stop-color:#B92932"/>
		<stop  offset="0.9008" style="stop-color:#C32329"/>
		<stop  offset="1" style="stop-color:#C72026"/>
	</linearGradient>
	<use xlink:href="#SVGID_4_"  style="overflow:visible;fill-rule:evenodd;clip-rule:evenodd;fill:url(#SVGID_16_);"/>
	<clipPath id="SVGID_17_">
		<use xlink:href="#SVGID_4_"  style="overflow:visible;"/>
	</clipPath>
	<linearGradient id="SVGID_18_" gradientUnits="userSpaceOnUse" x1="26.5587" y1="2680.4338" x2="320.3882" y2="2680.4338">
		<stop  offset="0" style="stop-color:#1C468C"/>
		<stop  offset="3.043735e-02" style="stop-color:#2C4588"/>
		<stop  offset="0.2316" style="stop-color:#693F6C"/>
		<stop  offset="0.4238" style="stop-color:#8C3854"/>
		<stop  offset="0.6019" style="stop-color:#A63041"/>
		<stop  offset="0.7628" style="stop-color:#B92932"/>
		<stop  offset="0.9008" style="stop-color:#C32329"/>
		<stop  offset="1" style="stop-color:#C72026"/>
	</linearGradient>
	<rect x="26.6" y="2502.9" class="st24" width="293.8" height="355.2"/>
</g>
<text transform="matrix(1 0 0 1 339.8497 2699.7615)"><tspan x="0" y="0" class="st2" style="font-family:'MyanmarText-Bold'; font-size:185.7594px;">G</tspan><tspan x="132.1" y="0" class="st1" style="font-family:'MyanmarText-Bold'; font-size:185.7594px;">i</tspan><tspan x="184.9" y="0" class="st2" style="font-family:'MyanmarText-Bold'; font-size:185.7594px;">surgery</tspan><tspan x="842.3" y="0" class="st1" style="font-family:'MyanmarText-Bold'; font-size:185.7594px;">.info</tspan></text>
<text transform="matrix(1 0 0 1 367.0972 2797.3242)" class="st1" style="font-family:'MoolBoran'; font-size:93.5042px;">Online Resource In Gi Surgery</text>
<g>
	<path id="XMLID_6_" class="st1" d="M174.4,2061.8c11.1,11.8,16,28.4,15.2,44.7c6.6-3.1,16.6-6.1,24.2-7c9.9-1.1,26.7-7.1,37-15.1
		c10.3-8-0.2-8.9-15.4-13.1c-15.2-4.2-18.2-23.1-11.6-18.1c6.6,5,23.7,6.9,37.3,7.4c5.6,0.2,12.5,2.4,18.6,4.9
		c6.1,2.5,12.5,3.7,18.9,3.8c0.4,0,0.8,0,1.2,0.1c6.1,0.5,12.1-0.6,17.5-3.6c9.8-5.4,23.9-14.2,40.3-27.6c0,0,0,0,0,0
		c-2.6-7.3-5.8-14.5-9.6-21.5c-20.3-37.5-62-60.4-104.6-51.1c-21.9,4-41.3,13.4-52.5,22.5c-1.4,1.1-2.8,2.1-4.1,3
		c-16.6,10.8-24.1-4.5-26.5-11.2c-0.4-1.6-0.6-3.2-0.8-4.7c-1.2-9.4-8.1-17.2-17.5-19c-0.9-0.2-1.8-0.3-2.7-0.4
		c-13.4-1.2-24.6,10.2-23.6,23.6c1.2,16.3,4.9,32.6,13.7,46.3C140.5,2043.3,160.6,2047.2,174.4,2061.8z"/>
	<path id="XMLID_4_" class="st2" d="M183.2,2269.2c-6.9-5.5-14.2-10.4-22-14.4c-8.2-4.3-18.7-10.3-24.5-15.8c-0.2-0.2-0.6-0.6-1-0.9
		c-10.7-10.5-23-19.1-36.4-25.7c-18.3-9.1-36.4-22.2-52.5-35.6c-19.7,12.3-26.2,32.1-26.2,32.1c-12.5,31.3-4.2,69,0.9,86.1
		c2.2,7.3,8.4,12.8,16,13.7c0.3,0,0.6,0.1,0.9,0.1c14.5,1.3,24.9-13.7,19.1-27c-3.9-9-5.9-17.3-6.7-24.8c-0.7-6.1,3.1-12.2,9.1-13.8
		c7-1.9,14.7,4.3,19.8,8.4c8.8,7.2,17.5,13.5,27.9,18.4c13.8,6.5,28.6,10.6,43.7,12.7c17,2.4,34.1,2.1,51-0.2
		C197,2279.9,189.4,2274.2,183.2,2269.2z"/>
	<path id="XMLID_3_" class="st21" d="M208.6,2281.4c6.5-1.1,12.9-2.5,19.2-4.2c-10.8-4.3-32.4-19.7-39.2-24.6
		c-1-0.7-2.3-0.7-3.2,0.1c-1.3,1.1-1.2,3.1,0.1,4.1C191.6,2261.3,208.4,2274.5,208.6,2281.4z"/>
	<linearGradient id="XMLID_9_" gradientUnits="userSpaceOnUse" x1="113.2391" y1="2182.3176" x2="367.0972" y2="2182.3176">
		<stop  offset="0" style="stop-color:#1C468C"/>
		<stop  offset="3.043735e-02" style="stop-color:#2C4588"/>
		<stop  offset="0.2316" style="stop-color:#693F6C"/>
		<stop  offset="0.4238" style="stop-color:#8C3854"/>
		<stop  offset="0.6019" style="stop-color:#A63041"/>
		<stop  offset="0.7628" style="stop-color:#B92932"/>
		<stop  offset="0.9008" style="stop-color:#C32329"/>
		<stop  offset="1" style="stop-color:#C72026"/>
	</linearGradient>
	<path id="XMLID_1_" class="st25" d="M341.3,2101.4c-13.9,5.5-26.9,13.1-38.4,22.6c-0.4,0.4-0.8,0.6-1,0.9
		c-6.2,4.9-17.1,10.1-25.7,13.7c-8.1,3.4-15.9,7.6-23.2,12.5c-10.7,7.2-25.5,16.2-26.3,11c-1-6.7,18.3-19.4,25-23.6
		c1.4-0.9,1.7-2.8,0.5-4.1c-0.8-0.8-2.2-0.9-3.2-0.3c-9.6,5.8-47.8,28.4-47.2,20.3c0.5-8,29.7-22.4,37.6-26.2c1-0.5,1.5-1.6,1.1-2.7
		c-0.4-1.1-1.6-1.5-2.7-1.1c-9,3.8-49.4,20.2-52.8,13.6c-3-6,36-20.3,47.2-24.3c1.6-0.6,2.3-2.4,1.6-3.9c-0.6-1.2-1.9-1.8-3.1-1.5
		c-16.6,3.9-33.4,7.3-42.1,6.6c-1.5,8.8-4.7,17.3-9.5,24.6c-15.4,23.6-40.3,30-65.9,29.7c5,3.8,9.4,7,13.2,9.5c5.1,3.4,11,5,17.1,5
		c0.4,0,0.8,0,1.2,0c6.4,0.5,12.9-0.2,19.2-2.2c6.3-2,13.3-3.6,18.9-3.3c13.6,0.6,30.7,0.2,37.8-4.3c7-4.5,2.5,14.2-13,17.1
		c-15.5,2.9-26,2.9-16.4,11.8c9.6,8.9,25.8,16.2,35.6,18.2c13,2.6,32.4,12,29.7,15.9c-3.5,4.9-25.6-1.3-47.4-8.4
		c-1.2-0.4-2.6,0.1-3.2,1.2c-0.9,1.4-0.3,3.3,1.2,4c10.9,4.9,48.5,22.4,45.1,28.1c-3.9,6.3-42.8-13.5-51.4-18
		c-1-0.5-2.2-0.1-2.8,0.9c-0.5,1-0.1,2.2,0.9,2.7c7.2,4.2,32.8,19.6,35.1,28c3.5-1,7-2.1,10.5-3.3C320,2246.5,369.5,2166.9,367,2089
		C358.5,2093.7,349.9,2097.9,341.3,2101.4z"/>
</g>
<g>
	<g>
		<path class="st2" d="M543.6,2045.6c-1.5-35.7-15.7-46.2-43-46.2c-45.6,0-78.7,54.3-78.7,108.6c0,45.3,16.8,75.8,47.6,75.8
			c13.1,0,21.2-3.2,24.7-20.9l6.1-31.1c4.4-22.4,2.3-23.5-24.4-27l1.2-4.4h81.6l-0.9,4.4c-16,2.3-18.3,4.4-22.7,27l-5.2,26.4
			c-1.5,7.3-1.7,16-1.2,21.5c-16.3,4.6-39.8,10.5-61.6,10.5c-52.6,0-85.1-30.8-85.1-81.6c0-69.1,52-115.6,120.5-115.6
			c22.4,0,44.1,4.9,52.6,7.3c-2,9.9-4.9,25.6-7.3,45L543.6,2045.6z"/>
		<path class="st1" d="M626.4,2159.1c-16.6,21.5-34.6,30.2-44.4,30.2c-9.3,0-12.2-9-7-30.2c6.1-25.6,10.2-41.8,15.4-64.8
			c2-9.3,2-13.1-1.5-13.1c-4.1,0-11,6.1-16.3,11.6l-2.6-4.1c13.4-15.7,34.6-29.3,45.6-29.3c10.2,0,10.5,9.3,4.9,34.6
			c-4.9,20.9-9.9,41.8-14.8,62.4c-2,8.1-0.6,10.7,2,10.7c2,0,7.6-2.6,16.3-11.9L626.4,2159.1z M633,2014.5c0,9.9-6.4,19.2-16.3,19.2
			c-8.1,0-13.4-5.5-13.4-14.8c0-8.4,5.8-18.9,17.1-18.9C629,2000,633,2006.9,633,2014.5z"/>
	</g>
</g>
<g>
	<g>
		<path class="st23" d="M642.6,2151.7c0.6,15.7,8.2,35.2,30.3,35.2c16.2,0,21.9-12.9,21.9-23.3c0-9.6-4.1-18.6-14.3-27l-4.7-3.9
			c-13.7-11.4-23.5-20.9-23.5-37.6c0-20.8,15.3-36.8,41.7-36.8c14.1,0,25.6,3.7,30.5,5.1c-1.6,7.8-3.7,16.1-4.7,28.2l-3.3,0.2
			c0.2-17.4-5.1-29.4-23.5-29.4c-14.1,0-20.9,10.4-20.9,22.1c0,9.8,4.1,16.6,15.9,26l5.1,4.1c14.1,11.4,23.9,20.8,23.9,37.6
			c0,24.7-22.3,39-44.6,39c-18.2,0-31.7-7.8-35.6-10.4c0.8-4.7,2.2-16.1,2.9-29.2H642.6z"/>
		<path class="st23" d="M815.9,2169.9c-10.6,14.1-22.9,20.8-29.6,20.8c-5.7,0-8.8-4.1-5.7-18.4c1.2-5.5,2.2-10.2,3.3-15.5
			c-10.4,15.7-20.9,25.3-27,29.2c-3.9,2.7-8.8,4.7-13.1,4.7c-7.6,0-13.7-3.9-8.2-28.2c2.3-10.4,6.3-24.7,8.8-35.8
			c1.4-6.3,1.6-9.2-0.8-9.2s-7.8,4.3-11.4,8l-1.6-2.5c8.6-10.4,21.5-19.8,29.8-19.8c6.5,0,7.8,6.3,4.1,23.1
			c-3.1,13.9-6.1,24.7-9.2,38.6c-2.2,9.4,0.8,11.7,2.7,11.7c5.9,0,12.7-7.8,20-18.2c3.9-5.7,8.2-13.9,10.4-23.5
			c2-8.2,3.7-16.2,6.1-26.6c6.7-1.6,13.5-3.3,20.2-5.1h1.2c-4.5,20.9-9.8,42.1-14.3,65.4c-1.2,5.5-0.8,8,1,8c1.6,0,5.9-2.3,11.7-9
			L815.9,2169.9z"/>
		<path class="st23" d="M829,2123.1c11.2-13.9,22.3-20,28.8-20c7.4,0,7,9.2,3.5,26.2l-1.6,6.7c6.9-13.9,19-32.9,29-32.9
			c5.1,0,8.8,4.3,8.8,9.6c0,5.5-5.7,13.1-8.8,14.9c-1.6,1-2.7,1.4-3.7,0.2c-2.5-2.7-7.6-6.5-10-6.5c-4.1,0-10.8,13.1-13.5,19.6
			c-5.1,11.7-8.8,33.3-11.6,45.6c-6.9,0.6-15.1,2.3-20,3.9l-1-1.2c4.9-20.6,9.8-43.5,12.5-57c2.2-11.2,2.3-14.3,0.4-14.3
			c-3.1,0-8,4.9-11.2,7.4L829,2123.1z"/>
		<path class="st23" d="M923,2168c-0.8,1-2.5,2.9-2.5,5.1c0,3.3,5.1,5.9,16.8,11.9c18.2,9.4,25.6,16.6,25.6,25.1
			c0,18.4-29.2,31.9-49.5,31.9c-19.4,0-35.2-9.4-35.2-21.1c0-10,14.1-17.8,32.5-27c-4.5-2.7-7.6-6.7-7.4-10
			c0.2-4.1,6.7-10,15.9-15.9H923z M945.3,2221.4c0-5.1-3.7-9-8.8-12.9c-6.1-4.5-15.1-8.4-22.9-12.5c-10.6,6.3-16.3,13.1-16.3,21.1
			c0,12.1,14.7,18.2,26.2,18.2C938.2,2235.3,945.3,2229.1,945.3,2221.4z M900.8,2146.4c0-14.5,7.8-28.6,20.8-36.8
			c6.5-3.9,14.5-6.5,22.1-6.5c6.5,0,12.1,1.8,17,5.1c11.4,0.4,17.4-2.2,20.4-4.3l1.4,2c-6.9,9.6-14.5,10.4-17.8,10.8
			c0.8,2.3,1.2,5.5,1.2,9c0,15.7-8.2,26.2-15.1,31.9c-8.4,7-20.9,11.2-28.4,11.2C908.7,2168.8,900.8,2159.8,900.8,2146.4z
			 M946.4,2121.4c0-9.2-2.2-13.7-7.8-13.7c-11,0-17.8,23.9-17.8,42.7c0,8.2,2.2,13.7,8.2,13.7C938,2164.1,946.4,2144.9,946.4,2121.4
			z"/>
		<path class="st23" d="M998.1,2190.7c-10.2,0-21.7-5.7-21.7-27.4c0-18.6,7.8-37.2,20.9-48.4c8-6.9,19.6-11.7,28.6-11.7
			c11.2,0,15.5,7,15.5,14.7c0,17-26.8,25.6-43.5,29.8c-0.4,3.5-0.4,5.9-0.4,7c0,12.5,3.5,23.1,14.5,23.1c7.2,0,15.3-3.5,24.1-12.7
			l1.6,2.5C1022.8,2185.8,1007.9,2190.7,998.1,2190.7z M998.5,2143.1c19.4-3.5,24.7-14.7,24.7-24.1c0-5.7-2.7-9.6-7.2-9.6
			C1009.7,2109.4,1001.7,2116.3,998.5,2143.1z"/>
		<path class="st23" d="M1050.2,2123.1c11.2-13.9,22.3-20,28.8-20c7.4,0,7,9.2,3.5,26.2l-1.6,6.7c6.9-13.9,19-32.9,29-32.9
			c5.1,0,8.8,4.3,8.8,9.6c0,5.5-5.7,13.1-8.8,14.9c-1.6,1-2.7,1.4-3.7,0.2c-2.5-2.7-7.6-6.5-10-6.5c-4.1,0-10.8,13.1-13.5,19.6
			c-5.1,11.7-8.8,33.3-11.6,45.6c-6.9,0.6-15.1,2.3-20,3.9l-1-1.2c4.9-20.6,9.8-43.5,12.5-57c2.2-11.2,2.3-14.3,0.4-14.3
			c-3.1,0-8,4.9-11.2,7.4L1050.2,2123.1z"/>
		<path class="st23" d="M1117.9,2123.9c6.7-10.6,18.2-20.8,25.6-20.8c7.8,0,10.4,9.8,11.9,26c1.4,12.3,2.3,33.7,2.7,47
			c6.7-10,23.1-36,22.9-48.4c-0.2-6.5-4.1-11.9-4.3-13.5c-0.8-2.2,0.4-4.1,2-6.1c2-2.3,6.7-5.1,9.6-5.1c4.7,0,7.2,4.1,7.6,11
			c0,5.7-2,14.5-7.8,24.1c-18.4,29.8-40.1,61.5-68.5,97.1l-22.7,6.1l-1-2.7c17.6-10.4,36-28.8,44.2-40.5c0.2-6.9-1.8-41.9-4.1-60.9
			c-1.8-13.5-2.7-19.2-6.3-19.2c-1.8,0-5.5,2.3-10.2,8L1117.9,2123.9z"/>
	</g>
</g>
<g>
	<g>
		<g>
			<path class="st2" d="M1216.7,2189.5c-3.2,0-5.8-2.4-5.8-6.2c0-4.2,3-7.3,6.8-7.3c3.4,0,5.9,2.7,5.9,6.3
				C1223.6,2187.1,1220.5,2189.5,1216.7,2189.5z"/>
			<path class="st2" d="M1251.3,2179.1c-5.7,7.4-11.9,10.4-15.3,10.4c-3.2,0-4.2-3.1-2.4-10.4c2.1-8.8,3.5-14.4,5.3-22.3
				c0.7-3.2,0.7-4.5-0.5-4.5c-1.4,0-3.8,2.1-5.6,4l-0.9-1.4c4.6-5.4,11.9-10.1,15.7-10.1c3.5,0,3.6,3.2,1.7,11.9
				c-1.7,7.2-3.4,14.4-5.1,21.5c-0.7,2.8-0.2,3.7,0.7,3.7c0.7,0,2.6-0.9,5.6-4.1L1251.3,2179.1z M1253.6,2129.3
				c0,3.4-2.2,6.6-5.6,6.6c-2.8,0-4.6-1.9-4.6-5.1c0-2.9,2-6.5,5.9-6.5C1252.2,2124.3,1253.6,2126.7,1253.6,2129.3z"/>
			<path class="st2" d="M1301.3,2179.5c-5.6,7-11.2,10-15.1,10c-3.2,0-4.4-2.2-2.7-9.5c1.6-7.3,3.3-14.4,5-21.7
				c1.1-5,0.7-6.8-1.2-6.8c-3.7,0-9.6,7-12.5,12.2c-2.4,4.1-2.7,6.6-3.5,9.5c-1.1,4.7-2.3,10.3-3,14.2c-3.2,0.3-7.5,1.2-10.3,2
				l-0.5-0.6c1.8-8.4,4.8-20.8,7.3-32c0.7-3.2,0.8-4.4-0.4-4.4c-1.4,0-3.9,2-5.7,3.9l-0.9-1.4c4.6-6,10.9-10.1,14.7-10.1
				c3.7,0,4.1,3.2,2.4,11.7l-1.2,5.2c5.9-9.5,14.9-16.9,21.3-16.9c3.5,0,6.2,1.5,3.5,14c-1.5,6.5-2.9,12.8-4.3,19.4
				c-0.7,2.8-0.4,3.7,0.5,3.7c0.7,0,2.8-0.7,5.8-3.9L1301.3,2179.5z"/>
			<path class="st2" d="M1315.6,2146c1.6-8.6,5.4-16.3,9.9-20.9c4.9-5.1,10.6-8.1,15.5-8.1c4,0,6.9,1.8,6.9,4.1
				c0,2.2-2.9,5.5-4.4,6.1c-0.9,0.4-1.4,0.4-2-0.4c-2.4-3.4-5.2-5.7-7.2-5.7c-2.2,0-4.5,2.1-8,24.9h9.2l-1.4,2.7
				c-3,0.2-5.2,0.3-8.3,0.3c-1.5,7.7-3.1,18.4-5.2,29.9c-3.9,20.4-8.4,24-15.4,30.3c-4.2,3.7-8.3,5.2-11,5.2c-3.5,0-6.3-1.8-6.3-4.3
				c0-2.5,1.8-5.1,3.7-6.2c0.7-0.4,1.3-0.6,1.9,0c3.3,3.3,5.8,5,7.8,5c4.3,0,4.7-7.5,7.7-24.7c2.2-12.7,3.9-23.2,6.1-35.2h-7.2
				l-0.2-0.5l1.8-2.5H1315.6z"/>
			<path class="st2" d="M1372.6,2159.4c0,10.5-5.1,21.4-14.4,26.8c-3.4,2-7.1,3.3-11.5,3.3c-10.3,0-13.6-7.1-13.6-14.7
				c0-12.8,7.1-23.1,16.1-27.5c3.2-1.5,6.7-2.5,10.3-2.5C1368.3,2144.8,1372.6,2150.9,1372.6,2159.4z M1344.3,2175
				c0,8.4,2.8,11.9,6.1,11.9c8.9,0,11.1-20.6,11.1-27.6c0-8.4-2.5-11.8-5.7-11.8C1347.1,2147.5,1344.3,2167.7,1344.3,2175z"/>
		</g>
	</g>
</g>
<g>
	<text transform="matrix(1 0 0 1 413.4007 2237.3159)"><tspan x="0" y="0" class="st2" style="font-family:'MoolBoran'; font-size:52.3987px;">Online Resource In G</tspan><tspan x="309.8" y="0" class="st1" style="font-family:'MoolBoran'; font-size:52.3987px;">i</tspan><tspan x="319.4" y="0" class="st2" style="font-family:'MoolBoran'; font-size:52.3987px;"> Surgery</tspan></text>
</g>
</svg>
